<svg preserveAspectRatio="xMidYMid meet" overflow="visible" style="display: block;" width="250" height="116" viewBox="0 0 250 116" fill="none" xmlns="http://www.w3.org/2000/svg">
<g id="logo 1" clip-path="url(#clip0_0_4)">
<path id="Vector" d="M125.589 55.4181H149.359L175.407 29.4771H151.657L125.589 55.4181Z" fill="#F39300"/>
<path id="Vector_2" d="M180.35 0.922612L170.039 11.1838L178.052 26.8445L204.12 0.922612H180.35Z" fill="#F39300"/>
<path id="Vector_3" d="M113.598 0.922612H133.486L124.816 55.4181H104.928L113.598 0.922612Z" fill="#145FAB"/>
<path id="Vector_4" d="M78.2415 35.7221L77.2567 25.73C77.025 23.3665 77.1216 19.8308 77.1796 17.3135H76.3686L69.5523 35.7221H78.2415ZM61.7706 55.4181H40.7425L68.4325 0.922612H90.4258L101.316 55.4181H80.2304L79.4773 48.6159H64.4353L61.7513 55.4181H61.7706Z" fill="#145FAB"/>
<path id="Vector_5" d="M141.018 0.922612H164.788L178.053 26.8445H154.303L141.018 0.922612Z" fill="#145FAB"/>
<path id="Vector_6" d="M226.926 35.7221L225.941 25.73C225.709 23.3665 225.806 19.8308 225.864 17.3135H225.053L218.236 35.7221H226.926ZM210.455 55.4181H189.427L217.117 0.922612H239.11L250.001 55.4181H228.915L228.162 48.6159H213.119L210.435 55.4181H210.455Z" fill="#145FAB"/>
<path id="Vector_7" d="M43.7936 22.9819C41.1095 20.0419 37.4794 17.5054 32.9995 17.5054C27.0523 17.5054 21.4525 22.1941 20.4678 28.1125C19.5409 34.1269 23.9435 38.7195 29.9101 38.7195C34.4863 38.7195 38.4255 36.798 42.1137 33.6851L38.2711 54.0921C34.834 55.5908 27.342 56.2443 23.7697 56.2443C8.1676 56.2443 -2.10504 44.1767 0.366572 28.6505C2.8768 12.7207 17.4748 0 33.5209 0C38.0201 0 42.5577 0.826273 46.5162 2.22901L43.7936 22.9819Z" fill="#145FAB"/>
<path id="Vector_8" d="M159.67 45.157L175.408 29.4771L188.693 55.4181H164.923L159.67 45.157Z" fill="#145FAB"/>
<path id="Vector_9" d="M35.684 72.3853C35.2786 71.8664 33.4057 69.5606 30.625 68.0809C27.6706 66.5435 24.4267 66.4283 23.5577 66.4283C19.1165 66.4283 13.9995 68.0809 10.0604 71.9816C6.29505 75.7287 4.3641 80.936 4.3641 85.5863C4.3641 89.7752 6.08265 93.753 8.74735 96.4625C11.4314 99.1911 15.3512 100.824 19.5607 100.824C22.3412 100.824 24.6777 100.267 26.8982 99.2486C29.2925 98.1726 31.2237 96.7507 32.8843 95.1174L32.4786 98.4031C30.934 99.7097 28.9451 101.016 27.0142 101.804C25.9327 102.266 23.3646 103.111 19.5027 103.111C14.5981 103.111 10.3887 101.689 6.85503 98.1726C3.93928 95.2901 1.62215 91.0244 1.62215 85.4711C1.62215 80.4749 3.49518 74.7679 8.34186 70.1754C13.5168 65.2369 19.3869 64.1802 23.5964 64.1802C27.8059 64.1802 30.5477 65.3714 31.3394 65.7174C33 66.5051 34.6992 67.6966 36.0704 69.1185L35.6647 72.4044L35.684 72.3853Z" fill="#145FAB"/>
<path id="Vector_10" d="M56.6933 98.3453C58.3345 96.8082 60.1111 94.2139 60.1111 90.2941C60.1111 86.3741 58.2959 84.3949 57.6588 83.7224C56.2299 82.2427 53.9513 80.9938 50.7072 80.9938C47.7531 80.9938 45.3585 82.0697 43.64 83.6069C41.4196 85.5861 40.2802 88.6415 40.2802 91.5431C40.2802 94.2717 41.3036 96.7504 42.9062 98.4031C44.0456 99.5945 46.0923 100.959 49.5101 100.959C52.3487 100.959 54.743 100.113 56.6933 98.3453ZM59.5897 82.0891C61.3082 83.7992 62.4861 86.3357 62.4861 90.0828C62.4861 94.5024 60.7675 97.7305 58.6629 99.7097C56.7899 101.458 53.8162 103.111 49.1626 103.111C46.0345 103.111 43.1765 102.265 40.9559 99.9402C39.141 98.0765 37.8858 95.1749 37.8858 91.889C37.8858 88.3149 39.3727 84.6447 41.767 82.3195C44.2193 79.9944 47.6951 78.8607 50.9392 78.8607C54.183 78.8607 57.5428 80.0521 59.5897 82.0891Z" fill="#145FAB"/>
<path id="Vector_11" d="M70.6338 79.3602H72.9121L72.4487 82.9921C73.2405 81.5124 74.3219 80.6094 75.1327 80.1099C76.5039 79.2066 77.9907 78.8607 79.7477 78.8607C82.4317 78.8607 84.0732 79.7639 84.9807 80.6669C85.8302 81.5124 86.7379 82.8768 86.7379 85.2595C86.7379 86.3932 86.4482 88.7184 86.3902 89.3332L84.749 102.477H82.4704L84.1116 88.9875C84.2856 87.3926 84.4013 86.6046 84.4013 85.932C84.4013 84.8561 84.1696 83.4916 83.1461 82.4157C82.5284 81.7431 81.2732 80.9938 79.2072 80.9938C77.508 80.9938 75.8472 81.4549 74.4183 82.8C72.6997 84.4333 71.966 86.9314 71.5219 90.4478L70.0351 102.458H67.7567L70.5951 79.3412L70.6338 79.3602Z" fill="#145FAB"/>
<path id="Vector_12" d="M105.643 83.6074C105.411 82.9348 104.967 82.1852 104.33 81.7434C104.156 81.6282 103.306 81.0131 101.762 81.0131C100.12 81.0131 99.0776 81.6857 98.5175 82.2623C97.8995 82.8964 97.4941 83.8572 97.4941 84.8179C97.4941 85.4905 97.7258 86.2976 98.4015 87.0276C98.6912 87.316 99.3093 87.8156 100.796 88.4497L102.553 89.1798C104.774 90.083 105.623 90.8708 105.971 91.2167C107.226 92.5234 107.516 94.1183 107.516 95.2904C107.516 98.0574 106.261 99.8252 105.469 100.671C104.272 101.92 102.225 103.111 99.0967 103.111C97.7258 103.111 95.4472 102.823 93.7479 101.132C92.7247 100.113 91.991 98.5185 91.7013 97.0005L93.9796 96.3279C94.0376 96.6739 94.2693 98.3072 95.5245 99.5564C96.2582 100.286 97.3974 100.978 99.174 100.978C100.951 100.978 102.418 100.479 103.441 99.4986C104.407 98.5379 105.083 97.0582 105.083 95.5786C105.083 94.5601 104.793 93.5994 104.001 92.8116C103.654 92.4657 102.92 91.9083 101.202 91.159L99.8304 90.6017C98.6332 90.083 97.1464 89.1798 96.4706 88.5072C95.5631 87.6042 95.0997 86.5858 95.0997 85.1639C95.0997 83.4151 95.7175 81.9932 96.799 80.9172C98.2858 79.3798 99.9851 78.8803 101.916 78.8803C103.055 78.8803 104.426 79.0532 105.681 79.8987C106.415 80.4174 107.265 81.2629 107.67 82.6273L105.623 83.6458L105.643 83.6074Z" fill="#145FAB"/>
<path id="Vector_13" d="M132.289 68.7728L125.395 76.0171L123.793 75.1139L129.991 67.3506L132.269 68.7728H132.289ZM131.149 98.3456C132.791 96.8082 134.567 94.2142 134.567 90.2941C134.567 86.3741 132.752 84.3949 132.115 83.7224C130.686 82.243 128.407 80.9938 125.163 80.9938C122.209 80.9938 119.815 82.07 118.096 83.6071C115.876 85.5863 114.736 88.6418 114.736 91.5433C114.736 94.2719 115.76 96.7507 117.362 98.4033C118.502 99.5945 120.548 100.959 123.966 100.959C126.805 100.959 129.199 100.113 131.149 98.3456ZM134.065 82.0891C135.784 83.7994 136.962 86.3357 136.962 90.0828C136.962 94.5024 135.243 97.7308 133.138 99.71C131.265 101.458 128.292 103.111 123.638 103.111C120.51 103.111 117.652 102.266 115.431 99.9404C113.616 98.0765 112.361 95.1749 112.361 91.889C112.361 88.3149 113.848 84.6447 116.243 82.3198C118.695 79.9946 122.171 78.8609 125.414 78.8609C128.659 78.8609 132.018 80.0524 134.065 82.0891Z" fill="#145FAB"/>
<path id="Vector_14" d="M145.091 79.3608H147.37L147.022 82.3585C147.486 81.5129 148.277 80.4945 149.243 79.8603C150.15 79.2453 151.405 78.8419 152.66 78.8419C153.008 78.8419 153.973 78.8996 154.939 79.4182L153.568 81.4552C153.336 81.2822 152.834 80.994 151.907 80.994C150.768 80.994 149.571 81.5704 148.721 82.4737C146.848 84.4529 146.327 88.027 145.999 90.8517L144.512 102.477H142.233L145.072 79.3608H145.091Z" fill="#145FAB"/>
<path id="Vector_15" d="M177.956 84.7988C177.106 83.8378 175.909 82.8196 174.77 82.1855C173.515 81.5129 171.989 80.994 170.155 80.994C165.83 80.994 163.319 83.0885 162.47 83.9917C160.307 86.1439 159.399 89.3143 159.399 91.9277C159.399 94.1951 160.249 96.6932 161.794 98.3842C163.783 100.536 166.409 100.94 168.34 100.94C170.271 100.94 171.584 100.652 173.129 99.8639C174.847 98.9606 175.967 97.8269 176.778 96.8084L176.372 100.094C175.465 100.825 174.21 101.689 173.071 102.189C171.197 102.977 169.131 103.092 168.224 103.092C164.246 103.092 161.736 101.728 160.017 100.037C158.299 98.2881 157.005 95.5595 157.005 91.9277C157.005 87.7388 158.762 84.3374 160.886 82.3007C163.049 80.2063 166.177 78.8419 170.116 78.8419C172.742 78.8419 174.615 79.6296 175.175 79.8603C176.257 80.3215 177.396 81.0518 178.361 81.7818L177.956 84.7795V84.7988Z" fill="#145FAB"/>
<path id="Vector_16" d="M185.699 73.2308C185.467 73.0003 185.236 72.616 185.236 71.9819C185.236 71.1941 185.525 70.56 185.969 70.1563C186.491 69.6376 187.109 69.5415 187.514 69.5415C188.132 69.5415 188.595 69.8297 188.827 70.0604C189.232 70.4638 189.348 70.9634 189.348 71.3671C189.348 72.0012 189.175 72.5583 188.673 73.0772C188.209 73.5383 187.707 73.7497 187.031 73.7497C186.297 73.7497 185.892 73.4038 185.718 73.2308M187.456 79.3608L184.618 102.477H182.339L185.178 79.3608H187.456Z" fill="#145FAB"/>
<path id="Vector_17" d="M211.536 98.3453C213.177 96.8082 214.954 94.2139 214.954 90.2941C214.954 86.3741 213.139 84.3949 212.501 83.7224C211.072 82.2427 208.794 80.9938 205.55 80.9938C202.596 80.9938 200.201 82.0697 198.483 83.6069C196.262 85.5861 195.123 88.6415 195.123 91.5431C195.123 94.2717 196.146 96.7504 197.749 98.4031C198.888 99.5945 200.935 100.959 204.353 100.959C207.191 100.959 209.586 100.113 211.536 98.3453ZM214.452 82.0891C216.17 83.7992 217.348 86.3357 217.348 90.0828C217.348 94.5024 215.63 97.7305 213.525 99.7097C211.652 101.458 208.678 103.111 204.024 103.111C200.896 103.111 198.039 102.265 195.818 99.9402C194.003 98.0765 192.748 95.1749 192.748 91.889C192.748 88.3149 194.235 84.6447 196.629 82.3195C199.081 79.9944 202.557 78.8607 205.801 78.8607C209.045 78.8607 212.405 80.0521 214.452 82.0891Z" fill="#145FAB"/>
<path id="Vector_18" d="M35.684 72.3853C35.2786 71.8664 33.4057 69.5606 30.625 68.0809C27.6706 66.5435 24.4267 66.4283 23.5577 66.4283C19.1165 66.4283 13.9995 68.0809 10.0604 71.9816C6.29505 75.7287 4.3641 80.936 4.3641 85.5863C4.3641 89.7752 6.08265 93.753 8.74735 96.4625C11.4314 99.1911 15.3512 100.824 19.5607 100.824C22.3412 100.824 24.6777 100.267 26.8982 99.2486C29.2925 98.1726 31.2237 96.7507 32.8843 95.1174L32.4786 98.4031C30.934 99.7097 28.9451 101.016 27.0142 101.804C25.9327 102.266 23.3646 103.111 19.5027 103.111C14.5981 103.111 10.3887 101.689 6.85503 98.1726C3.93928 95.2901 1.62215 91.0244 1.62215 85.4711C1.62215 80.4749 3.49518 74.7679 8.34186 70.1754C13.5168 65.2369 19.3869 64.1802 23.5964 64.1802C27.8059 64.1802 30.5477 65.3714 31.3394 65.7174C33 66.5051 34.6992 67.6966 36.0704 69.1185L35.6647 72.4044L35.684 72.3853Z" fill="#145FAB"/>
<path id="Vector_19" d="M56.6933 98.3453C58.3345 96.8082 60.1111 94.2139 60.1111 90.2941C60.1111 86.3741 58.2959 84.3949 57.6588 83.7224C56.2299 82.2427 53.9513 80.9938 50.7072 80.9938C47.7531 80.9938 45.3585 82.0697 43.64 83.6069C41.4196 85.5861 40.2802 88.6415 40.2802 91.5431C40.2802 94.2717 41.3036 96.7504 42.9062 98.4031C44.0456 99.5945 46.0923 100.959 49.5101 100.959C52.3487 100.959 54.743 100.113 56.6933 98.3453ZM59.5897 82.0891C61.3082 83.7992 62.4861 86.3357 62.4861 90.0828C62.4861 94.5024 60.7675 97.7305 58.6629 99.7097C56.7899 101.458 53.8162 103.111 49.1626 103.111C46.0345 103.111 43.1765 102.265 40.9559 99.9402C39.141 98.0765 37.8858 95.1749 37.8858 91.889C37.8858 88.3149 39.3727 84.6447 41.767 82.3195C44.2193 79.9944 47.6951 78.8607 50.9392 78.8607C54.183 78.8607 57.5428 80.0521 59.5897 82.0891Z" fill="#145FAB"/>
<path id="Vector_20" d="M70.6338 79.3602H72.9121L72.4487 82.9921C73.2405 81.5124 74.3219 80.6094 75.1327 80.1099C76.5039 79.2066 77.9907 78.8607 79.7477 78.8607C82.4317 78.8607 84.0732 79.7639 84.9807 80.6669C85.8302 81.5124 86.7379 82.8768 86.7379 85.2595C86.7379 86.3932 86.4482 88.7184 86.3902 89.3332L84.749 102.477H82.4704L84.1116 88.9875C84.2856 87.3926 84.4013 86.6046 84.4013 85.932C84.4013 84.8561 84.1696 83.4916 83.1461 82.4157C82.5284 81.7431 81.2732 80.9938 79.2072 80.9938C77.508 80.9938 75.8472 81.4549 74.4183 82.8C72.6997 84.4333 71.966 86.9314 71.5219 90.4478L70.0351 102.458H67.7567L70.5951 79.3412L70.6338 79.3602Z" fill="#145FAB"/>
<path id="Vector_21" d="M105.643 83.6074C105.411 82.9348 104.967 82.1852 104.33 81.7434C104.156 81.6282 103.306 81.0131 101.762 81.0131C100.12 81.0131 99.0776 81.6857 98.5175 82.2623C97.8995 82.8964 97.4941 83.8572 97.4941 84.8179C97.4941 85.4905 97.7258 86.2976 98.4015 87.0276C98.6912 87.316 99.3093 87.8156 100.796 88.4497L102.553 89.1798C104.774 90.083 105.623 90.8708 105.971 91.2167C107.226 92.5234 107.516 94.1183 107.516 95.2904C107.516 98.0574 106.261 99.8252 105.469 100.671C104.272 101.92 102.225 103.111 99.0967 103.111C97.7258 103.111 95.4472 102.823 93.7479 101.132C92.7247 100.113 91.991 98.5185 91.7013 97.0005L93.9796 96.3279C94.0376 96.6739 94.2693 98.3072 95.5245 99.5564C96.2582 100.286 97.3974 100.978 99.174 100.978C100.951 100.978 102.418 100.479 103.441 99.4986C104.407 98.5379 105.083 97.0582 105.083 95.5786C105.083 94.5601 104.793 93.5994 104.001 92.8116C103.654 92.4657 102.92 91.9083 101.202 91.159L99.8304 90.6017C98.6332 90.083 97.1464 89.1798 96.4706 88.5072C95.5631 87.6042 95.0997 86.5858 95.0997 85.1639C95.0997 83.4151 95.7175 81.9932 96.799 80.9172C98.2858 79.3798 99.9851 78.8803 101.916 78.8803C103.055 78.8803 104.426 79.0532 105.681 79.8987C106.415 80.4174 107.265 81.2629 107.67 82.6273L105.623 83.6458L105.643 83.6074Z" fill="#145FAB"/>
<path id="Vector_22" d="M132.289 68.7728L125.395 76.0171L123.793 75.1139L129.991 67.3506L132.269 68.7728H132.289ZM131.149 98.3456C132.791 96.8082 134.567 94.2142 134.567 90.2941C134.567 86.3741 132.752 84.3949 132.115 83.7224C130.686 82.243 128.407 80.9938 125.163 80.9938C122.209 80.9938 119.815 82.07 118.096 83.6071C115.876 85.5863 114.736 88.6418 114.736 91.5433C114.736 94.2719 115.76 96.7507 117.362 98.4033C118.502 99.5945 120.548 100.959 123.966 100.959C126.805 100.959 129.199 100.113 131.149 98.3456ZM134.065 82.0891C135.784 83.7994 136.962 86.3357 136.962 90.0828C136.962 94.5024 135.243 97.7308 133.138 99.71C131.265 101.458 128.292 103.111 123.638 103.111C120.51 103.111 117.652 102.266 115.431 99.9404C113.616 98.0765 112.361 95.1749 112.361 91.889C112.361 88.3149 113.848 84.6447 116.243 82.3198C118.695 79.9946 122.171 78.8609 125.414 78.8609C128.659 78.8609 132.018 80.0524 134.065 82.0891Z" fill="#145FAB"/>
<path id="Vector_23" d="M145.091 79.3608H147.37L147.022 82.3585C147.486 81.5129 148.277 80.4945 149.243 79.8603C150.15 79.2453 151.405 78.8419 152.66 78.8419C153.008 78.8419 153.973 78.8996 154.939 79.4182L153.568 81.4552C153.336 81.2822 152.834 80.994 151.907 80.994C150.768 80.994 149.571 81.5704 148.721 82.4737C146.848 84.4529 146.327 88.027 145.999 90.8517L144.512 102.477H142.233L145.072 79.3608H145.091Z" fill="#145FAB"/>
<path id="Vector_24" d="M177.956 84.7988C177.106 83.8378 175.909 82.8196 174.77 82.1855C173.515 81.5129 171.989 80.994 170.155 80.994C165.83 80.994 163.319 83.0885 162.47 83.9917C160.307 86.1439 159.399 89.3143 159.399 91.9277C159.399 94.1951 160.249 96.6932 161.794 98.3842C163.783 100.536 166.409 100.94 168.34 100.94C170.271 100.94 171.584 100.652 173.129 99.8639C174.847 98.9606 175.967 97.8269 176.778 96.8084L176.372 100.094C175.465 100.825 174.21 101.689 173.071 102.189C171.197 102.977 169.131 103.092 168.224 103.092C164.246 103.092 161.736 101.728 160.017 100.037C158.299 98.2881 157.005 95.5595 157.005 91.9277C157.005 87.7388 158.762 84.3374 160.886 82.3007C163.049 80.2063 166.177 78.8419 170.116 78.8419C172.742 78.8419 174.615 79.6296 175.175 79.8603C176.257 80.3215 177.396 81.0518 178.361 81.7818L177.956 84.7795V84.7988Z" fill="#145FAB"/>
<path id="Vector_25" d="M185.699 73.2308C185.467 73.0003 185.236 72.616 185.236 71.9819C185.236 71.1941 185.525 70.56 185.969 70.1563C186.491 69.6376 187.109 69.5415 187.514 69.5415C188.132 69.5415 188.595 69.8297 188.827 70.0604C189.232 70.4638 189.348 70.9634 189.348 71.3671C189.348 72.0012 189.175 72.5583 188.673 73.0772C188.209 73.5383 187.707 73.7497 187.031 73.7497C186.297 73.7497 185.892 73.4038 185.718 73.2308M187.456 79.3608L184.618 102.477H182.339L185.178 79.3608H187.456Z" fill="#145FAB"/>
<path id="Vector_26" d="M211.536 98.3453C213.177 96.8082 214.954 94.2139 214.954 90.2941C214.954 86.3741 213.139 84.3949 212.501 83.7224C211.072 82.2427 208.794 80.9938 205.55 80.9938C202.596 80.9938 200.201 82.0697 198.483 83.6069C196.262 85.5861 195.123 88.6415 195.123 91.5431C195.123 94.2717 196.146 96.7504 197.749 98.4031C198.888 99.5945 200.935 100.959 204.353 100.959C207.191 100.959 209.586 100.113 211.536 98.3453ZM214.452 82.0891C216.17 83.7992 217.348 86.3357 217.348 90.0828C217.348 94.5024 215.63 97.7305 213.525 99.7097C211.652 101.458 208.678 103.111 204.024 103.111C200.896 103.111 198.039 102.265 195.818 99.9402C194.003 98.0765 192.748 95.1749 192.748 91.889C192.748 88.3149 194.235 84.6447 196.629 82.3195C199.081 79.9944 202.557 78.8607 205.801 78.8607C209.045 78.8607 212.405 80.0521 214.452 82.0891Z" fill="#145FAB"/>
</g>
<defs>
<clipPath id="clip0_0_4">
<rect width="250" height="116" fill="white"/>
</clipPath>
</defs>
</svg>
